<?xml version="1.0" encoding="utf-8"?>
<svg viewBox="65.25 28.904 360.34 326.852" xmlns="http://www.w3.org/2000/svg">
  <path d="M 336.232 225.823 L 336.232 114.696 C 336.232 109.725 332.203 105.696 327.232 105.696 L 138.563 105.696 L 133.076 90.607 C 131.783 87.05 128.402 84.682 124.618 84.682 L 101.232 84.682 C 96.261 84.682 92.232 88.711 92.232 93.682 C 92.232 98.653 96.261 102.682 101.232 102.682 L 118.315 102.682 L 175.533 260.04 C 176.826 263.598 194.441 260.577 194.441 260.577 L 185.516 234.823 L 327.232 234.823 C 332.203 234.823 336.232 230.794 336.232 225.823 Z M 218.707 179.464 L 218.707 161.055 L 262.232 161.055 L 262.232 179.464 L 218.707 179.464 Z M 262.232 197.464 L 262.232 216.823 L 218.707 216.823 L 218.707 197.464 L 262.232 197.464 Z M 165.393 179.481 L 158.693 161.055 L 200.707 161.055 L 200.707 179.464 L 165.732 179.464 C 165.617 179.464 165.506 179.477 165.393 179.481 Z M 218.707 143.055 L 218.707 123.696 L 262.232 123.696 L 262.232 143.054 L 218.707 143.054 L 218.707 143.055 Z M 280.232 161.055 L 318.232 161.055 L 318.232 179.464 L 280.232 179.464 L 280.232 161.055 Z M 318.232 143.055 L 280.232 143.055 L 280.232 123.696 L 318.232 123.696 L 318.232 143.055 Z M 200.707 123.696 L 200.707 143.054 L 152.148 143.054 L 145.109 123.696 L 200.707 123.696 Z M 171.931 197.464 L 200.706 197.464 L 200.706 216.823 L 178.971 216.823 L 171.931 197.464 Z M 280.232 216.823 L 280.232 197.464 L 318.232 197.464 L 318.232 216.823 L 280.232 216.823 Z"/>
  <g transform="matrix(1, 0, 0, 1, 102.489067, 55.777393)"/>
  <g transform="matrix(1, 0, 0, 1, 102.489067, 55.777393)"/>
  <g transform="matrix(1, 0, 0, 1, 102.489067, 55.777393)"/>
  <g transform="matrix(1, 0, 0, 1, 102.489067, 55.777393)"/>
  <g transform="matrix(1, 0, 0, 1, 102.489067, 55.777393)"/>
  <g transform="matrix(1, 0, 0, 1, 102.489067, 55.777393)"/>
  <g transform="matrix(1, 0, 0, 1, 102.489067, 55.777393)"/>
  <g transform="matrix(1, 0, 0, 1, 102.489067, 55.777393)"/>
  <g transform="matrix(1, 0, 0, 1, 102.489067, 55.777393)"/>
  <g transform="matrix(1, 0, 0, 1, 102.489067, 55.777393)"/>
  <g transform="matrix(1, 0, 0, 1, 102.489067, 55.777393)"/>
  <g transform="matrix(1, 0, 0, 1, 102.489067, 55.777393)"/>
  <g transform="matrix(1, 0, 0, 1, 102.489067, 55.777393)"/>
  <g transform="matrix(1, 0, 0, 1, 102.489067, 55.777393)"/>
  <g transform="matrix(1, 0, 0, 1, 102.489067, 55.777393)"/>
  <g transform="matrix(0.567722, -0.000285, -0.004482, 0.567724, 94.989464, 131.983688)" style="">
    <g>
      <path d="M 513.629 203.676 C 510.697 199.364 505.821 196.784 500.597 196.784 C 497.425 196.784 494.365 197.816 491.741 199.604 C 475.761 210.484 454.493 216.552 431.837 216.552 L 96.649 216.552 C 74.081 216.552 52.873 210.52 36.917 199.712 C 34.301 197.952 31.245 196.972 28.101 196.972 C 22.853 196.972 17.977 199.536 15.045 203.876 C 12.685 207.352 11.821 211.536 12.613 215.668 C 13.409 219.796 15.645 223.376 19.129 225.74 C 39.885 239.8 67.381 247.592 94.953 247.848 L 94.953 254.78 C 87.077 259.216 79.321 268.684 79.321 279.656 C 79.321 294.856 91.753 307.228 106.957 307.228 C 122.157 307.228 134.437 294.856 134.437 279.656 C 134.437 268.684 126.465 259.22 118.589 254.78 L 118.589 248.064 L 410.077 248.064 L 410.077 254.44 C 402.201 258.88 394.425 268.344 394.425 279.316 C 394.425 294.52 406.841 306.888 422.045 306.888 C 437.249 306.888 449.545 294.52 449.545 279.316 C 449.545 268.344 441.593 258.884 433.713 254.44 L 433.713 247.824 C 461.289 247.456 488.741 239.616 509.381 225.564 C 512.857 223.196 515.253 219.612 516.037 215.48 C 516.821 211.352 516.001 207.156 513.629 203.676 Z"/>
    </g>
  </g>
</svg>