<?xml version="1.0" encoding="utf-8"?>
<svg viewBox="0 0 500 500" xmlns="http://www.w3.org/2000/svg">
  <path d="M 345.878 213.801 L 345.878 102.674 C 345.878 97.703 341.849 93.674 336.878 93.674 L 148.209 93.674 L 142.722 78.585 C 141.429 75.028 138.048 72.66 134.264 72.66 L 110.878 72.66 C 105.907 72.66 101.878 76.689 101.878 81.66 C 101.878 86.631 105.907 90.66 110.878 90.66 L 127.961 90.66 L 185.179 248.018 C 186.472 251.576 204.087 248.555 204.087 248.555 L 195.162 222.801 L 336.878 222.801 C 341.849 222.801 345.878 218.772 345.878 213.801 Z M 228.353 167.442 L 228.353 149.033 L 271.878 149.033 L 271.878 167.442 L 228.353 167.442 Z M 271.878 185.442 L 271.878 204.801 L 228.353 204.801 L 228.353 185.442 L 271.878 185.442 Z M 175.039 167.459 L 168.339 149.033 L 210.353 149.033 L 210.353 167.442 L 175.378 167.442 C 175.263 167.442 175.152 167.455 175.039 167.459 Z M 228.353 131.033 L 228.353 111.674 L 271.878 111.674 L 271.878 131.032 L 228.353 131.032 L 228.353 131.033 Z M 289.878 149.033 L 327.878 149.033 L 327.878 167.442 L 289.878 167.442 L 289.878 149.033 Z M 327.878 131.033 L 289.878 131.033 L 289.878 111.674 L 327.878 111.674 L 327.878 131.033 Z M 210.353 111.674 L 210.353 131.032 L 161.794 131.032 L 154.755 111.674 L 210.353 111.674 Z M 181.577 185.442 L 210.352 185.442 L 210.352 204.801 L 188.617 204.801 L 181.577 185.442 Z M 289.878 204.801 L 289.878 185.442 L 327.878 185.442 L 327.878 204.801 L 289.878 204.801 Z"/>
  <g transform="matrix(1, 0, 0, 1, 112.135155, 43.754917)"/>
  <g transform="matrix(1, 0, 0, 1, 112.135155, 43.754917)"/>
  <g transform="matrix(1, 0, 0, 1, 112.135155, 43.754917)"/>
  <g transform="matrix(1, 0, 0, 1, 112.135155, 43.754917)"/>
  <g transform="matrix(1, 0, 0, 1, 112.135155, 43.754917)"/>
  <g transform="matrix(1, 0, 0, 1, 112.135155, 43.754917)"/>
  <g transform="matrix(1, 0, 0, 1, 112.135155, 43.754917)"/>
  <g transform="matrix(1, 0, 0, 1, 112.135155, 43.754917)"/>
  <g transform="matrix(1, 0, 0, 1, 112.135155, 43.754917)"/>
  <g transform="matrix(1, 0, 0, 1, 112.135155, 43.754917)"/>
  <g transform="matrix(1, 0, 0, 1, 112.135155, 43.754917)"/>
  <g transform="matrix(1, 0, 0, 1, 112.135155, 43.754917)"/>
  <g transform="matrix(1, 0, 0, 1, 112.135155, 43.754917)"/>
  <g transform="matrix(1, 0, 0, 1, 112.135155, 43.754917)"/>
  <g transform="matrix(1, 0, 0, 1, 112.135155, 43.754917)"/>
  <g transform="matrix(0.567722, -0.000285, -0.004482, 0.567724, 104.635551, 119.961212)" style="">
    <g>
      <path d="M 513.629 203.676 C 510.697 199.364 505.821 196.784 500.597 196.784 C 497.425 196.784 494.365 197.816 491.741 199.604 C 475.761 210.484 454.493 216.552 431.837 216.552 L 96.649 216.552 C 74.081 216.552 52.873 210.52 36.917 199.712 C 34.301 197.952 31.245 196.972 28.101 196.972 C 22.853 196.972 17.977 199.536 15.045 203.876 C 12.685 207.352 11.821 211.536 12.613 215.668 C 13.409 219.796 15.645 223.376 19.129 225.74 C 39.885 239.8 67.381 247.592 94.953 247.848 L 94.953 254.78 C 87.077 259.216 79.321 268.684 79.321 279.656 C 79.321 294.856 91.753 307.228 106.957 307.228 C 122.157 307.228 134.437 294.856 134.437 279.656 C 134.437 268.684 126.465 259.22 118.589 254.78 L 118.589 248.064 L 410.077 248.064 L 410.077 254.44 C 402.201 258.88 394.425 268.344 394.425 279.316 C 394.425 294.52 406.841 306.888 422.045 306.888 C 437.249 306.888 449.545 294.52 449.545 279.316 C 449.545 268.344 441.593 258.884 433.713 254.44 L 433.713 247.824 C 461.289 247.456 488.741 239.616 509.381 225.564 C 512.857 223.196 515.253 219.612 516.037 215.48 C 516.821 211.352 516.001 207.156 513.629 203.676 Z"/>
    </g>
  </g>
</svg>